<svg xmlns="http://www.w3.org/2000/svg" xmlns:xlink="http://www.w3.org/1999/xlink" viewBox="0 0 759.28 114.27"><defs><style>.cls-1{fill:#d2ac2b;}.cls-2{fill:#fff;}.cls-3{fill:url(#linear-gradient);}.cls-4{fill:url(#linear-gradient-2);}.cls-5{fill:url(#linear-gradient-3);}.cls-6{fill:url(#linear-gradient-4);}.cls-7{fill:url(#linear-gradient-5);}.cls-8{fill:url(#linear-gradient-6);}.cls-9{fill:url(#linear-gradient-7);}.cls-10{fill:url(#linear-gradient-8);}.cls-11{fill:url(#linear-gradient-9);}.cls-12{fill:url(#linear-gradient-10);}</style><linearGradient id="linear-gradient" x1="97.38" y1="-4.13" x2="63.79" y2="15.26" gradientUnits="userSpaceOnUse"><stop offset="0" stop-color="#ae9b4c"/><stop offset="0.51" stop-color="#e8e0a1"/><stop offset="1" stop-color="#dace8b"/></linearGradient><linearGradient id="linear-gradient-2" x1="74.51" y1="113.83" x2="71.7" y2="91.71" gradientUnits="userSpaceOnUse"><stop offset="0" stop-color="#241b00"/><stop offset="0.2" stop-color="#695b30"/><stop offset="0.39" stop-color="#a49259"/><stop offset="0.53" stop-color="#c8b372"/><stop offset="0.61" stop-color="#d6c07c"/><stop offset="1" stop-color="#917837"/></linearGradient><linearGradient id="linear-gradient-3" x1="106.32" y1="19.73" x2="105.09" y2="79.85" gradientUnits="userSpaceOnUse"><stop offset="0" stop-color="#8f8f8f"/><stop offset="0.29" stop-color="#f2f2f2"/><stop offset="0.48" stop-color="#dbdbdb"/><stop offset="0.49" stop-color="#dadada"/><stop offset="0.66" stop-color="#ccc"/><stop offset="0.99" stop-color="#262626"/></linearGradient><linearGradient id="linear-gradient-4" x1="82.11" y1="85.55" x2="95.84" y2="101.33" gradientUnits="userSpaceOnUse"><stop offset="0"/><stop offset="0.02" stop-color="#0a0a0a"/><stop offset="0.2" stop-color="#5a5a5a"/><stop offset="0.34" stop-color="#959595"/><stop offset="0.45" stop-color="#b9b9b9"/><stop offset="0.51" stop-color="#c7c7c7"/><stop offset="1" stop-color="#646464"/></linearGradient><linearGradient id="linear-gradient-5" x1="111.38" y1="101.53" x2="111.38" y2="123.85" gradientUnits="userSpaceOnUse"><stop offset="0" stop-color="#1a1a1a"/><stop offset="0.16" stop-color="#5b5b5b"/><stop offset="0.32" stop-color="#959595"/><stop offset="0.44" stop-color="#b9b9b9"/><stop offset="0.51" stop-color="#c7c7c7"/><stop offset="1" stop-color="#595959"/></linearGradient><linearGradient id="linear-gradient-6" x1="39.74" y1="111.77" x2="39.74" y2="12.53" gradientUnits="userSpaceOnUse"><stop offset="0" stop-color="#766637"/><stop offset="0.24" stop-color="#d9ba74"/><stop offset="0.48" stop-color="#d3b67b"/><stop offset="0.73" stop-color="#f3d98b"/><stop offset="1" stop-color="#564700"/></linearGradient><linearGradient id="linear-gradient-7" x1="74.33" y1="29.92" x2="90.77" y2="65.16" gradientUnits="userSpaceOnUse"><stop offset="0" stop-color="#b3b3b3"/><stop offset="0.22" stop-color="#f2f2f2"/><stop offset="0.48" stop-color="#dbdbdb"/><stop offset="0.5" stop-color="#dadada"/><stop offset="0.75" stop-color="#ccc"/><stop offset="1" stop-color="#8c8c8c"/></linearGradient><linearGradient id="linear-gradient-8" x1="76.24" y1="8.94" x2="79.89" y2="19.01" gradientUnits="userSpaceOnUse"><stop offset="0.02" stop-color="#ceb561"/><stop offset="0.48" stop-color="#e5dd9d"/><stop offset="0.99" stop-color="#ded9bb"/></linearGradient><linearGradient id="linear-gradient-9" x1="18.86" y1="0.76" x2="75.22" y2="121.62" gradientUnits="userSpaceOnUse"><stop offset="0" stop-color="#c7ac62"/><stop offset="0.49" stop-color="#f4efac"/><stop offset="1" stop-color="#ac8e43"/></linearGradient><linearGradient id="linear-gradient-10" x1="77.37" y1="93.72" x2="81.27" y2="102.08" gradientUnits="userSpaceOnUse"><stop offset="0.02" stop-color="#ceb561"/><stop offset="0.44" stop-color="#e5dd9d"/><stop offset="0.99" stop-color="#ded9bb"/></linearGradient></defs><title>Element 1</title><g id="Ebene_2" data-name="Ebene 2"><g id="Ebene_1-2" data-name="Ebene 1"><path class="cls-1" d="M229.24,25.79V21.67c0-8.73-5-9.33-23.53-9.33-21.32,0-25,2.41-25,17.15V46.15c.15,15.05,2.79,18,25,18,17.06,0,24.7-.4,24.7-11.14v-4.1h21.18v4.91c.44,22.68-18.53,21.87-45.88,22.68-38.81,1-45.72-7.73-46.16-29.7V29.49C159.55,5.42,173.22,0,205.71,0c27.5,0,43.23.1,44.7,21.67v4.12Z"/><path class="cls-1" d="M373,.6h48.82C451.34.6,461,5.42,461,26.49c0,21.27-10.43,25-39.25,25H394.15V75.85H373Zm48.82,38.53c15.14-.2,18.08-2.11,18.08-12.64s-2.2-13.65-18.08-13.55H394.15V39.13Z"/><path class="cls-1" d="M667.24.6V54.08c0,21-19.25,22.38-46,22.38-25.88,0-45.73-1.31-45.73-22.38V.6h21.18V54.08c0,7.72,4.11,10,24.55,10,19.55,0,24.84-1.91,24.84-10V.6Z"/><path class="cls-1" d="M707.12,63.51h51.45V75.85H686V.6h21.17Z"/><path class="cls-2" d="M162.69,95.41h14c5.33,0,6.58,2.44,6.58,5.66,0,1.68,0,5.77-6.73,5.77H165.81v7.28h-3.12Zm3.12,1.87V105h8.09c4.16,0,6.29,0,6.29-3.62s-1-4.06-4.82-4.06Z"/><path class="cls-2" d="M203.81,114.12h-3.12V95.41h12.72c6,0,8.57,1.12,8.57,5.38,0,2.62-.44,4.57-4.82,4.95v.05c3.09.15,4.45,1.34,4.45,3.37v5h-3.12v-4c0-2.38-.85-3.52-4.63-3.52H203.81Zm9.64-9.35c4.82-.11,5.4-1.1,5.4-4.2,0-2.4-.47-3.29-5.4-3.29h-9.64v7.49Z"/><path class="cls-2" d="M242.09,103.64h14v1.75h-14v6.86h14.6v1.87H239V95.41h17.72v1.87h-14.6Z"/><path class="cls-2" d="M279.2,114.27c-5,0-8-2.14-8-5.89v-7.23c0-5.3,4.82-5.9,11.51-5.9h2.57c5.77,0,7.54,1.7,7.54,5.4v.59h-3.13v-.52c0-2.62-.8-3.59-4.85-3.59h-1.77c-6.47,0-8.75.52-8.75,3.94v5.14c0,4.27.26,6.19,5.48,6.19h3.72c5,0,6.55-.47,6.55-3.14v-1.5h3.12v1.75c0,4.29-4.05,4.76-9.56,4.76Z"/><path class="cls-2" d="M312.26,114.12h-3.12V95.41h3.12Z"/><path class="cls-2" d="M328.7,100.69c0-5,3.39-5.44,10.19-5.44,6,0,10.26.18,9.93,5.27h-3.13c-.15-3.27-1.06-3.39-6.91-3.39-6.11,0-6.95.52-6.95,3.11,0,3.58,2.5,3.28,7.65,3.38,6.54.24,9.85.12,9.85,5.18,0,5.3-3.67,5.47-10.63,5.47s-10.66-.57-10.07-6h3.13c-.08,4.12,1.1,4.12,6.94,4.12s7.51,0,7.51-3.67-2.36-3-7.4-3.24C333.38,105.19,328.7,105.64,328.7,100.69Z"/><path class="cls-2" d="M368.78,114.12h-3.12V95.41h3.12Z"/><path class="cls-2" d="M398.1,95.25c6.87,0,9,1.6,9,6.29v6.67c0,4.42-2.35,6.06-9,6.06h-3.72c-6.61,0-9-1.64-9-6.06v-6.67c0-4.69,2.09-6.24,9-6.29Zm-3.72,1.88c-4.63,0-5.84.77-5.84,4.41v6.67c0,3.72,1.8,4.17,5.84,4.19h3.72c4,0,5.84-.47,5.84-4.19v-6.67c0-3.64-1.21-4.41-5.84-4.41Z"/><path class="cls-2" d="M447.37,114.12h-5.1l-15.49-17h-.08v17h-3.12V95.41h5.15l15.45,17.09h.07V95.41h3.12Z"/><path class="cls-2" d="M490.06,113.42H487L476.52,96.29h-.07v17.13h-3.13V94.7h5.41l9.75,16,9.78-16h5.4v18.72h-3.12V96.29h-.08Z"/><path class="cls-2" d="M520.72,102.93h14v1.75h-14v6.87h14.6v1.87H517.6V94.7h17.72v1.87h-14.6Z"/><path class="cls-2" d="M555.18,113.57c-5,0-8-2.15-8-5.9v-7.23c0-5.29,4.82-5.9,11.51-5.9h2.58c5.77,0,7.54,1.7,7.54,5.4v.6h-3.13V100c0-2.62-.81-3.59-4.85-3.59H559c-6.47,0-8.75.52-8.75,3.94v5.15c0,4.26.26,6.19,5.48,6.19h3.71c5,0,6.55-.48,6.55-3.15v-1.5h3.13v1.75c0,4.29-4,4.77-9.57,4.77Z"/><path class="cls-2" d="M604.82,113.42H601.7V104.8H585.55v8.62h-3.12V94.7h3.12v8.23H601.7V94.7h3.12Z"/><path class="cls-2" d="M620.82,109.45l-2.13,4h-3.27l10-18.72h4.42l10.3,18.72h-3.24l-2.17-4Zm6.92-13-6.07,11.25h12.21Z"/><path class="cls-2" d="M673.46,113.42h-5.11l-15.48-17h-.08v17h-3.12V94.7h5.15l15.44,17.09h.07V94.7h3.13Z"/><path class="cls-2" d="M691.59,113.42h-3.13V94.7h3.13Z"/><path class="cls-2" d="M713.72,113.57c-5,0-8-2.15-8-5.9v-7.23c0-5.29,4.82-5.9,11.51-5.9h2.58c5.77,0,7.54,1.7,7.54,5.4v.6H724.2V100c0-2.62-.81-3.59-4.86-3.59h-1.76c-6.47,0-8.75.52-8.75,3.94v5.15c0,4.26.25,6.19,5.48,6.19H718c5,0,6.54-.48,6.54-3.15v-1.5h3.13v1.75c0,4.29-4,4.77-9.56,4.77Z"/><path class="cls-2" d="M738.65,100c0-5,3.38-5.45,10.19-5.45,6,0,10.26.18,9.92,5.27h-3.12c-.14-3.27-1.06-3.39-6.91-3.39-6.11,0-7,.52-7,3.11,0,3.58,2.5,3.28,7.64,3.38,6.55.25,9.86.12,9.86,5.19,0,5.29-3.67,5.47-10.62,5.47s-10.67-.58-10.08-6h3.12c-.07,4.13,1.11,4.13,7,4.13s7.5,0,7.5-3.68-2.36-3-7.39-3.24C743.32,104.48,738.65,104.93,738.65,100Z"/><path class="cls-1" d="M527.78.6h-28L467,75.85h19.66l6.2-14.25h42.75L542,75.85H561.3Zm-13.73,11h.27l16.1,36.9H498.09Z"/><path class="cls-1" d="M326,.6H298.05l-32.8,75.25h19.63l6.19-14.25h42.67l6.46,14.25h19.23Zm-13.7,11h.27l16.07,36.9H296.33Z"/><path class="cls-3" d="M55.37.69S91.11,5.19,99.3,7.33a54.05,54.05,0,0,1,6.5,3.11l-4.36,1.12s-20.21-.8-20.39-.74S71.8,8.06,71.8,8.06L55.37.69"/><path class="cls-4" d="M66.81,103.62c10.11,0,17.87-3.63,24.61-12.55l6.1,11.06c-2.89,3.27-11.78,7.15-11.78,7.15-4.9,1.66-29.58,3.93-35.82,3.86Z"/><path class="cls-5" d="M80.39,8c16.34,9.41,26.14,27.24,26.14,48.91a59.84,59.84,0,0,1-17,41.84l26.14-.06c8.53-9.51,16.06-25.55,16.06-40.81,0-28-11.86-38.94-26.56-47.84Z"/><polygon class="cls-6" points="79.37 86.09 86.71 86.54 83.59 91.54 79.37 86.09"/><polygon class="cls-7" points="91.23 98.35 115.85 98.42 131.54 112.41 105.58 113.38 91.23 98.35"/><path class="cls-8" d="M66.1,100.82c-12.73-9-18.92-24.19-18.92-43.5,0-19,7.84-35.18,20.26-44.24L67,12.46C62.52,9.34,56.49,6.2,50.3,6.2,29.6,6.2,12,28.17,12,56.54s14,52.24,34.68,52.24a29.31,29.31,0,0,0,18.09-6.48L66.06,101Z"/><path class="cls-9" d="M107.77,56.93c0-21.67-9.61-39.37-25.94-48.78l-12,6c12.7,0,23,19.31,23,43.13,0,13.58-3.95,25.31-9.18,33.22l-4.28-4.4-3.94,5.35,5.27,9.13,5.8,1.53-3.44,2.28,5.3,8.86,17.23.12-14.35-15A58.8,58.8,0,0,0,107.77,56.93Z"/><polygon class="cls-10" points="81.83 8.11 74.31 7.5 74.38 20.06 81.78 20.33 81.83 8.11"/><path class="cls-11" d="M74.32,7.55l.06,12.51S62.35,6.75,50.1,6.75c-20.7,0-37.48,22-37.48,50.33s12.93,51.37,33.63,51.37c10.12,0,19.29-5.49,26-14.41l5.48,8.22A48,48,0,0,1,47.4,113.2C19.09,113.2,0,88,0,56.9S22.94.6,51.25.6c8.84,0,15.81,2.62,23.07,7"/><polygon class="cls-12" points="72.31 94.05 81.25 94.52 86.49 102.09 77.78 102.28 72.31 94.05"/></g></g></svg>